<?xml version="1.0" encoding="utf-8"?>
<!-- Generator: Adobe Illustrator 24.3.0, SVG Export Plug-In . SVG Version: 6.00 Build 0)  -->
<svg version="1.1" id="Calque_1" xmlns="http://www.w3.org/2000/svg" xmlns:xlink="http://www.w3.org/1999/xlink" x="0px" y="0px"
	 viewBox="0 0 177 73" style="enable-background:new 0 0 177 73;" xml:space="preserve">
<style type="text/css">
	.st0{fill:#5066F5;stroke:#000000;stroke-width:0.25;stroke-miterlimit:10;}
	.st1{font-family:'Candara';}
	.st2{font-size:29.9552px;}
</style>
<text transform="matrix(1 0 0 1 15.9714 47.8585)" class="st0 st1 st2">Le Program</text>
<g transform="translate(0.000000,1280.000000) scale(0.100000,-0.100000)">
	<path class="st0" d="M548.8,12686c-36-8.6-86-20.4-111.2-26.3c-40.7-9.6-45.8-11-46.6-12.2c-0.5-0.8-0.8-2-0.5-2.8
		c0.4-1.6-1.7-0.7,55.8-25.5c20.7-8.9,37.7-16.5,37.9-16.9c0.1-0.4-1.7-4.8-4.2-9.7c-6.3-12.7-11.9-30.4-11.9-37.5
		c0-2.4,1.2-4.3,2.7-4.3c0.4,0,4,0.9,8,2.1c16,4.6,29,6.5,45.1,6.5c17.2,0.1,24.5-1.2,46.4-7.9c13.9-4.2,23.5-6.3,34.1-7.3
		c12.5-1.1,20.9-0.5,45.8,3.9c4.8,0.8,11.6,1.9,15.1,2.3c8,0.9,27.4,0.4,36.2-1c13.7-2.1,30.5-6.8,41.9-11.5
		c5.9-2.5,7.8-2.6,9.1-0.6c0.9,1.4,0.9,1.9,0,6.8c-1.4,8-4.8,20.1-7.7,28.6c-2,5.5-2.5,7.8-2.1,8.3c1.1,1.1,1.9,0.8,4.4-1.5
		c8.7-8,14.8-12,26-17.5c3.7-1.8,7.1-3.8,7.4-4.5c0.9-1.6,0.7-6.3-0.2-8.7c-1.4-3.3-6.2-8-12.8-12.4c-7.1-4.8-8.9-6.8-12.7-14.1
		c-4.2-8.1-7.8-13.7-16-24.8c-8.6-11.7-10.6-14.7-15.2-23c-6.3-11.6-14.2-30.3-17-40.5l-1-3.6l1.6-1.7c4.3-4.5,13.8-6.6,20.6-4.6
		c5.1,1.4,5.5,2,6,7.6c0.5,5.5,1.3,6.6,1.8,2.5c0.7-5.5,1-6.3,2.5-7c1.2-0.5,1.8-0.5,3.1,0.2l1.6,0.9l0.1,10.2
		c0,10.8,0.5,16.2,1.6,15.8c0.4-0.1,1.5-2.9,2.6-6.2c2.4-7.6,5.8-14.4,7.8-15.7c1.4-0.9,1.6-0.9,3.1,0c0.8,0.6,1.7,1.4,1.9,1.9
		c0.2,0.5-0.8,3.7-2.2,7.1c-3.3,8.4-4.4,13.4-4.4,20.6c0,6.6,0.9,11.2,3.7,19.2c1.8,5.1,6.7,15.6,10.4,22.5c1.7,3.2,2.2,5,3.1,11.5
		c1.4,10.4,1.3,10,4.2,11.8c10.3,6.5,18.2,17.2,18.9,25.8c0.8,8.3-2.5,12.5-15,18.8c-12,6.1-21,12.3-19.7,13.6
		c0.1,0.1,18,4.5,39.7,9.6c21.7,5.1,39.7,9.6,40.2,10c0.4,0.4,0.8,1.6,0.8,2.7c0,1.6-0.4,2.2-1.6,2.8c-1,0.5-49.9,21.2-108.8,46.2
		c-105.8,44.8-107.2,45.3-111,45.2C615.3,12701.5,595.7,12697.1,548.8,12686z"/>
</g>
</svg>
